<mxfile host="app.diagrams.net" agent="Mozilla/5.0 (Macintosh; Intel Mac OS X 10_15_7) AppleWebKit/537.36 (KHTML, like Gecko) Chrome/128.0.0.0 Safari/537.36" version="24.7.14">
  <diagram name="第 1 页" id="hJ5FUNvZlha01u_AHyTy">
    <mxGraphModel dx="1814" dy="665" grid="0" gridSize="10" guides="1" tooltips="1" connect="1" arrows="1" fold="1" page="0" pageScale="1" pageWidth="827" pageHeight="1169" math="0" shadow="0">
      <root>
        <mxCell id="0" />
        <mxCell id="1" parent="0" />
        <mxCell id="S-5pP42RtsHk4LP7wpHk-35" value="" style="rounded=0;whiteSpace=wrap;html=1;dashed=1;" vertex="1" parent="1">
          <mxGeometry x="141" y="462" width="225" height="145" as="geometry" />
        </mxCell>
        <mxCell id="S-5pP42RtsHk4LP7wpHk-29" value="" style="rounded=0;whiteSpace=wrap;html=1;dashed=1;" vertex="1" parent="1">
          <mxGeometry x="410" y="462" width="359" height="163" as="geometry" />
        </mxCell>
        <mxCell id="S-5pP42RtsHk4LP7wpHk-22" value="" style="rounded=0;whiteSpace=wrap;html=1;dashed=1;" vertex="1" parent="1">
          <mxGeometry x="-92" y="129" width="861" height="282" as="geometry" />
        </mxCell>
        <mxCell id="S-5pP42RtsHk4LP7wpHk-17" value="" style="rounded=0;whiteSpace=wrap;html=1;" vertex="1" parent="1">
          <mxGeometry x="509" y="161" width="230" height="199" as="geometry" />
        </mxCell>
        <mxCell id="S-5pP42RtsHk4LP7wpHk-20" style="edgeStyle=orthogonalEdgeStyle;rounded=0;orthogonalLoop=1;jettySize=auto;html=1;entryX=0;entryY=0.5;entryDx=0;entryDy=0;" edge="1" parent="1" source="S-5pP42RtsHk4LP7wpHk-12" target="S-5pP42RtsHk4LP7wpHk-17">
          <mxGeometry relative="1" as="geometry" />
        </mxCell>
        <mxCell id="S-5pP42RtsHk4LP7wpHk-41" value="HTTP" style="edgeLabel;html=1;align=center;verticalAlign=middle;resizable=0;points=[];" vertex="1" connectable="0" parent="S-5pP42RtsHk4LP7wpHk-20">
          <mxGeometry x="-0.0067" relative="1" as="geometry">
            <mxPoint y="-9" as="offset" />
          </mxGeometry>
        </mxCell>
        <mxCell id="S-5pP42RtsHk4LP7wpHk-12" value="" style="rounded=0;whiteSpace=wrap;html=1;" vertex="1" parent="1">
          <mxGeometry x="125" y="161" width="310" height="198" as="geometry" />
        </mxCell>
        <mxCell id="S-5pP42RtsHk4LP7wpHk-21" style="edgeStyle=orthogonalEdgeStyle;rounded=0;orthogonalLoop=1;jettySize=auto;html=1;" edge="1" parent="1" source="S-5pP42RtsHk4LP7wpHk-1" target="S-5pP42RtsHk4LP7wpHk-12">
          <mxGeometry relative="1" as="geometry" />
        </mxCell>
        <mxCell id="S-5pP42RtsHk4LP7wpHk-40" value="HTTP" style="edgeLabel;html=1;align=center;verticalAlign=middle;resizable=0;points=[];" vertex="1" connectable="0" parent="S-5pP42RtsHk4LP7wpHk-21">
          <mxGeometry x="-0.2581" y="-1" relative="1" as="geometry">
            <mxPoint x="2" y="-10" as="offset" />
          </mxGeometry>
        </mxCell>
        <mxCell id="S-5pP42RtsHk4LP7wpHk-1" value="前端应用&lt;div&gt;(Next.js + ReactJS)&lt;/div&gt;" style="rounded=0;whiteSpace=wrap;html=1;fillColor=#ffe6cc;strokeColor=#d79b00;" vertex="1" parent="1">
          <mxGeometry x="-57" y="230" width="120" height="60" as="geometry" />
        </mxCell>
        <mxCell id="S-5pP42RtsHk4LP7wpHk-3" value="API网关" style="rounded=1;whiteSpace=wrap;html=1;fillColor=#dae8fc;strokeColor=#6c8ebf;" vertex="1" parent="1">
          <mxGeometry x="141" y="179" width="278" height="39" as="geometry" />
        </mxCell>
        <mxCell id="S-5pP42RtsHk4LP7wpHk-6" value="通用功能" style="rounded=1;whiteSpace=wrap;html=1;fillColor=#dae8fc;strokeColor=#6c8ebf;" vertex="1" parent="1">
          <mxGeometry x="141" y="231" width="85" height="39" as="geometry" />
        </mxCell>
        <mxCell id="S-5pP42RtsHk4LP7wpHk-7" value="数据分析" style="rounded=1;whiteSpace=wrap;html=1;fillColor=#dae8fc;strokeColor=#6c8ebf;" vertex="1" parent="1">
          <mxGeometry x="238" y="231" width="85" height="39" as="geometry" />
        </mxCell>
        <mxCell id="S-5pP42RtsHk4LP7wpHk-8" value="反馈系统" style="rounded=1;whiteSpace=wrap;html=1;fillColor=#dae8fc;strokeColor=#6c8ebf;" vertex="1" parent="1">
          <mxGeometry x="333" y="231.5" width="85" height="39" as="geometry" />
        </mxCell>
        <mxCell id="S-5pP42RtsHk4LP7wpHk-9" value="用户管理" style="rounded=1;whiteSpace=wrap;html=1;fillColor=#dae8fc;strokeColor=#6c8ebf;" vertex="1" parent="1">
          <mxGeometry x="141" y="284" width="85" height="39" as="geometry" />
        </mxCell>
        <mxCell id="S-5pP42RtsHk4LP7wpHk-10" value="系统运维" style="rounded=1;whiteSpace=wrap;html=1;fillColor=#dae8fc;strokeColor=#6c8ebf;" vertex="1" parent="1">
          <mxGeometry x="238" y="284" width="85" height="39" as="geometry" />
        </mxCell>
        <mxCell id="S-5pP42RtsHk4LP7wpHk-11" value="数据爬取" style="rounded=1;whiteSpace=wrap;html=1;fillColor=#dae8fc;strokeColor=#6c8ebf;" vertex="1" parent="1">
          <mxGeometry x="335" y="284" width="85" height="39" as="geometry" />
        </mxCell>
        <mxCell id="S-5pP42RtsHk4LP7wpHk-13" value="文件解析" style="rounded=1;whiteSpace=wrap;html=1;fillColor=#e1d5e7;strokeColor=#9673a6;" vertex="1" parent="1">
          <mxGeometry x="528" y="178" width="85" height="39" as="geometry" />
        </mxCell>
        <mxCell id="S-5pP42RtsHk4LP7wpHk-14" value="提示词微调" style="rounded=1;whiteSpace=wrap;html=1;fillColor=#e1d5e7;strokeColor=#9673a6;" vertex="1" parent="1">
          <mxGeometry x="629" y="178" width="85" height="39" as="geometry" />
        </mxCell>
        <mxCell id="S-5pP42RtsHk4LP7wpHk-15" value="问答系统（RAG）" style="rounded=1;whiteSpace=wrap;html=1;fillColor=#e1d5e7;strokeColor=#9673a6;" vertex="1" parent="1">
          <mxGeometry x="528" y="231" width="191" height="39" as="geometry" />
        </mxCell>
        <mxCell id="S-5pP42RtsHk4LP7wpHk-16" value="AI agent方案" style="rounded=1;whiteSpace=wrap;html=1;fillColor=#e1d5e7;strokeColor=#9673a6;" vertex="1" parent="1">
          <mxGeometry x="528" y="284" width="191" height="39" as="geometry" />
        </mxCell>
        <mxCell id="S-5pP42RtsHk4LP7wpHk-18" value="算法工程（python）" style="text;html=1;align=center;verticalAlign=middle;resizable=0;points=[];autosize=1;strokeColor=none;fillColor=none;" vertex="1" parent="1">
          <mxGeometry x="560.5" y="334" width="126" height="26" as="geometry" />
        </mxCell>
        <mxCell id="S-5pP42RtsHk4LP7wpHk-19" value="后端应用（Java工程）" style="text;html=1;align=center;verticalAlign=middle;resizable=0;points=[];autosize=1;strokeColor=none;fillColor=none;" vertex="1" parent="1">
          <mxGeometry x="211" y="333" width="139" height="26" as="geometry" />
        </mxCell>
        <mxCell id="S-5pP42RtsHk4LP7wpHk-23" value="自建应用（阿里云平台）" style="text;html=1;align=center;verticalAlign=middle;resizable=0;points=[];autosize=1;strokeColor=none;fillColor=none;" vertex="1" parent="1">
          <mxGeometry x="-92" y="385" width="150" height="26" as="geometry" />
        </mxCell>
        <mxCell id="S-5pP42RtsHk4LP7wpHk-24" value="OSS" style="shape=cylinder3;whiteSpace=wrap;html=1;boundedLbl=1;backgroundOutline=1;size=15;fillColor=#fff2cc;strokeColor=#d6b656;" vertex="1" parent="1">
          <mxGeometry x="431" y="479" width="89" height="51" as="geometry" />
        </mxCell>
        <mxCell id="S-5pP42RtsHk4LP7wpHk-25" value="MYSQL" style="shape=cylinder3;whiteSpace=wrap;html=1;boundedLbl=1;backgroundOutline=1;size=15;fillColor=#fff2cc;strokeColor=#d6b656;" vertex="1" parent="1">
          <mxGeometry x="543.5" y="479" width="89" height="51" as="geometry" />
        </mxCell>
        <mxCell id="S-5pP42RtsHk4LP7wpHk-26" value="Redis" style="shape=cylinder3;whiteSpace=wrap;html=1;boundedLbl=1;backgroundOutline=1;size=15;fillColor=#fff2cc;strokeColor=#d6b656;" vertex="1" parent="1">
          <mxGeometry x="431" y="541" width="89" height="51" as="geometry" />
        </mxCell>
        <mxCell id="S-5pP42RtsHk4LP7wpHk-27" value="elasticsearch" style="shape=cylinder3;whiteSpace=wrap;html=1;boundedLbl=1;backgroundOutline=1;size=15;fillColor=#fff2cc;strokeColor=#d6b656;" vertex="1" parent="1">
          <mxGeometry x="543.5" y="541" width="89" height="51" as="geometry" />
        </mxCell>
        <mxCell id="S-5pP42RtsHk4LP7wpHk-28" value="向量数据库" style="rounded=1;whiteSpace=wrap;html=1;fillColor=#fff2cc;strokeColor=#d6b656;" vertex="1" parent="1">
          <mxGeometry x="656" y="479" width="85" height="109" as="geometry" />
        </mxCell>
        <mxCell id="S-5pP42RtsHk4LP7wpHk-30" value="云上数据库" style="text;html=1;align=center;verticalAlign=middle;resizable=0;points=[];autosize=1;strokeColor=none;fillColor=none;" vertex="1" parent="1">
          <mxGeometry x="410" y="599" width="78" height="26" as="geometry" />
        </mxCell>
        <mxCell id="S-5pP42RtsHk4LP7wpHk-31" value="通义API" style="rounded=1;whiteSpace=wrap;html=1;fillColor=#f5f5f5;fontColor=#333333;strokeColor=#666666;" vertex="1" parent="1">
          <mxGeometry x="162" y="478" width="85" height="39" as="geometry" />
        </mxCell>
        <mxCell id="S-5pP42RtsHk4LP7wpHk-32" value="SerpAPI" style="rounded=1;whiteSpace=wrap;html=1;fillColor=#f5f5f5;fontColor=#333333;strokeColor=#666666;" vertex="1" parent="1">
          <mxGeometry x="262" y="478" width="85" height="39" as="geometry" />
        </mxCell>
        <mxCell id="S-5pP42RtsHk4LP7wpHk-33" value="阿里百炼" style="rounded=1;whiteSpace=wrap;html=1;fillColor=#f5f5f5;fontColor=#333333;strokeColor=#666666;" vertex="1" parent="1">
          <mxGeometry x="162" y="536" width="85" height="39" as="geometry" />
        </mxCell>
        <mxCell id="S-5pP42RtsHk4LP7wpHk-34" value="字节扣子" style="rounded=1;whiteSpace=wrap;html=1;fillColor=#f5f5f5;fontColor=#333333;strokeColor=#666666;" vertex="1" parent="1">
          <mxGeometry x="262" y="536" width="85" height="39" as="geometry" />
        </mxCell>
        <mxCell id="S-5pP42RtsHk4LP7wpHk-36" value="三方服务" style="text;html=1;align=center;verticalAlign=middle;resizable=0;points=[];autosize=1;strokeColor=none;fillColor=none;" vertex="1" parent="1">
          <mxGeometry x="141" y="581" width="66" height="26" as="geometry" />
        </mxCell>
        <mxCell id="S-5pP42RtsHk4LP7wpHk-38" style="edgeStyle=orthogonalEdgeStyle;rounded=0;orthogonalLoop=1;jettySize=auto;html=1;entryX=0.401;entryY=0.996;entryDx=0;entryDy=0;entryPerimeter=0;endArrow=none;endFill=0;startArrow=classic;startFill=1;" edge="1" parent="1" source="S-5pP42RtsHk4LP7wpHk-35" target="S-5pP42RtsHk4LP7wpHk-22">
          <mxGeometry relative="1" as="geometry" />
        </mxCell>
        <mxCell id="S-5pP42RtsHk4LP7wpHk-42" value="HTTPS" style="edgeLabel;html=1;align=center;verticalAlign=middle;resizable=0;points=[];" vertex="1" connectable="0" parent="S-5pP42RtsHk4LP7wpHk-38">
          <mxGeometry x="-0.0254" relative="1" as="geometry">
            <mxPoint x="23" y="-2" as="offset" />
          </mxGeometry>
        </mxCell>
        <mxCell id="S-5pP42RtsHk4LP7wpHk-39" style="edgeStyle=orthogonalEdgeStyle;rounded=0;orthogonalLoop=1;jettySize=auto;html=1;entryX=0.791;entryY=1;entryDx=0;entryDy=0;entryPerimeter=0;endArrow=none;endFill=0;startArrow=classic;startFill=1;" edge="1" parent="1" source="S-5pP42RtsHk4LP7wpHk-29" target="S-5pP42RtsHk4LP7wpHk-22">
          <mxGeometry relative="1" as="geometry" />
        </mxCell>
        <mxCell id="S-5pP42RtsHk4LP7wpHk-43" value="自定义协议" style="edgeLabel;html=1;align=center;verticalAlign=middle;resizable=0;points=[];" vertex="1" connectable="0" parent="S-5pP42RtsHk4LP7wpHk-39">
          <mxGeometry x="0.1048" y="-3" relative="1" as="geometry">
            <mxPoint x="31" y="1" as="offset" />
          </mxGeometry>
        </mxCell>
      </root>
    </mxGraphModel>
  </diagram>
</mxfile>
